<svg width="512" height="512" viewBox="0 0 512 512" fill="none" xmlns="http://www.w3.org/2000/svg">
<path d="M465.914 220.284C465.191 215.435 464.259 210.655 463.186 205.922C459.526 189.789 453.977 174.378 446.75 159.923C444.815 155.983 442.716 152.113 440.501 148.312C404.574 86.3894 337.405 44.8198 260.607 44.8198C146.017 44.8198 53.459 137.378 53.459 251.968C53.459 282.091 59.8471 310.674 71.3644 336.483C73.0431 340.26 74.8383 343.967 76.7501 347.604C84.9567 363.434 95.1684 378.053 107.035 391.155C110.299 394.722 113.68 398.196 117.154 401.553C154.364 437.248 204.863 459.117 260.607 459.117C375.198 459.117 468.339 366.559 468.339 251.968C468.339 241.197 467.523 230.612 465.914 220.284ZM260.607 363.738C251.911 363.738 243.448 362.735 235.335 360.847C229.25 359.424 223.351 357.513 217.686 355.135C177.328 338.255 148.838 298.317 148.838 251.968C148.838 190.442 199.081 140.199 260.607 140.199C322.134 140.199 372.377 190.442 372.377 251.968C372.377 260.361 371.444 268.568 369.649 276.448C368.273 282.603 366.385 288.549 364.03 294.261C347.29 334.944 307.19 363.738 260.607 363.738Z" fill="#F3F3FF"/>
<path d="M57.7568 332.755C31.0283 358.774 21.0879 378.94 28.2548 392.859C33.09 402.278 44.773 407 63.2056 407C72.4342 407 83.3072 405.795 95.8738 403.459C99.1381 402.844 102.501 402.155 105.961 401.393C111.287 400.212 116.859 398.86 122.7 397.311C154.51 388.851 191.399 375.497 230.375 358.454C252.097 348.961 274.457 341.477 296.914 329.894C321.066 317.426 344.211 304.466 365.859 291.382C400.491 270.38 431.171 249.034 455.445 228.892C461.924 223.507 467.815 217.263 473.117 212.295C475.154 210.401 478.17 207.478 480.035 205.633C500.014 185.812 509 168.378 509 155.713C509 152.245 508.264 149.048 506.766 146.122C499.992 132.94 479.743 128.981 446.363 134.268L452.941 146.515C460.501 145.433 467.152 144.917 472.822 144.917C485.192 144.917 492.973 147.376 495.329 152.024C498.25 157.68 485.838 164.887 478.471 171.912C474.563 175.64 471.951 177.258 467.944 180.878C459.359 188.634 455.042 192.434 446.363 199.338C419.432 220.761 371.774 246.223 371.774 246.223C371.774 246.223 322.363 272.821 291.024 287.844C259.885 302.771 211.796 326.058 211.796 326.058C211.796 326.058 156.336 351.313 119.412 363.746C110.048 366.898 104.739 371.653 95.3093 374.602C92.2534 375.558 90.5747 376.215 87.4797 377.034C69.4267 381.813 42.7113 392.884 39.6678 386.957C36.6243 381.03 41.9504 367.062 63.6474 345.125L63.4265 344.486L57.7568 332.755Z" fill="#FF8000"/>
<path d="M437.389 77.5675C445.133 77.2361 451.148 70.8041 450.822 63.2013C450.497 55.5984 443.955 49.7037 436.211 50.035C428.467 50.3664 422.452 56.7984 422.777 64.4012C423.103 72.0041 429.645 77.8988 437.389 77.5675Z" fill="#FF8000"/>
<path d="M437.095 70.6966C440.968 70.5309 443.974 67.3097 443.812 63.5018C443.649 59.6939 440.378 56.7414 436.505 56.907C432.633 57.0727 429.626 60.2939 429.789 64.1018C429.952 67.9097 433.223 70.8622 437.095 70.6966Z" fill="#070012"/>
<path d="M383.65 47.5375C385.927 47.4401 387.696 45.5465 387.6 43.3081C387.504 41.0697 385.581 39.3341 383.304 39.4315C381.027 39.5289 379.258 41.4225 379.354 43.6609C379.45 45.8993 381.373 47.6349 383.65 47.5375Z" fill="#F3F3FF"/>
<path d="M127.402 58.4813C129.679 58.3839 131.448 56.4904 131.352 54.252C131.256 52.0135 129.332 50.2779 127.055 50.3754C124.778 50.4728 123.01 52.3664 123.106 54.6048C123.202 56.8432 125.125 58.5788 127.402 58.4813Z" fill="#F3F3FF"/>
<path d="M42.2754 147.627C44.5524 147.529 46.3206 145.636 46.2248 143.397C46.1291 141.159 44.2055 139.423 41.9285 139.521C39.6515 139.618 37.8833 141.512 37.9791 143.75C38.0749 145.989 39.9984 147.724 42.2754 147.627Z" fill="#F3F3FF"/>
<path d="M16.4707 272.602C18.7477 272.505 20.5159 270.611 20.4201 268.373C20.3244 266.134 18.4009 264.399 16.1239 264.496C13.8469 264.593 12.0786 266.487 12.1744 268.725C12.2702 270.964 14.1937 272.699 16.4707 272.602Z" fill="#F3F3FF"/>
<path d="M25.584 333.31C27.861 333.213 29.6292 331.319 29.5334 329.081C29.4377 326.842 27.5141 325.107 25.2371 325.204C22.9601 325.301 21.1919 327.195 21.2877 329.433C21.3834 331.672 23.307 333.407 25.584 333.31Z" fill="#F3F3FF"/>
<path d="M145.101 477.235C147.378 477.138 149.146 475.244 149.05 473.006C148.954 470.767 147.031 469.032 144.754 469.129C142.477 469.227 140.709 471.12 140.804 473.359C140.9 475.597 142.824 477.333 145.101 477.235Z" fill="#F3F3FF"/>
<path d="M400.895 462.234C403.172 462.137 404.94 460.243 404.844 458.005C404.748 455.766 402.825 454.031 400.548 454.128C398.271 454.226 396.502 456.119 396.598 458.358C396.694 460.596 398.618 462.332 400.895 462.234Z" fill="#F3F3FF"/>
<path d="M203.181 492.785C205.458 492.687 207.226 490.794 207.13 488.555C207.034 486.317 205.111 484.581 202.834 484.679C200.557 484.776 198.789 486.67 198.884 488.908C198.98 491.146 200.904 492.882 203.181 492.785Z" fill="#F3F3FF"/>
<path d="M344.43 486.75C346.707 486.653 348.475 484.759 348.379 482.521C348.283 480.283 346.36 478.547 344.083 478.644C341.806 478.742 340.038 480.635 340.133 482.874C340.229 485.112 342.153 486.848 344.43 486.75Z" fill="#F3F3FF"/>
<path d="M23.3672 204.97C26.4804 204.836 28.8979 202.246 28.7669 199.185C28.6359 196.123 26.006 193.749 22.8928 193.882C19.7796 194.015 17.3621 196.605 17.4931 199.667C17.6241 202.729 20.254 205.103 23.3672 204.97Z" fill="#F3F3FF"/>
<path d="M324.735 22.3112C327.012 22.2138 328.781 20.3202 328.685 18.0818C328.589 15.8434 326.666 14.1078 324.389 14.2052C322.112 14.3026 320.343 16.1962 320.439 18.4346C320.535 20.673 322.458 22.4086 324.735 22.3112Z" fill="#F3F3FF"/>
<path d="M183.371 28.3717C185.648 28.2743 187.416 26.3807 187.321 24.1423C187.225 21.9039 185.301 20.1683 183.024 20.2657C180.747 20.3632 178.979 22.2567 179.075 24.4951C179.171 26.7335 181.094 28.4692 183.371 28.3717Z" fill="#F3F3FF"/>
<path d="M254.042 17.9766C258.506 17.7856 261.973 14.085 261.786 9.71114C261.598 5.33724 257.828 1.94632 253.364 2.13732C248.9 2.32832 245.433 6.02891 245.62 10.4028C245.807 14.7767 249.578 18.1676 254.042 17.9766Z" fill="#F3F3FF"/>
<path d="M78.6276 100.496C83.0916 100.305 86.5586 96.6041 86.3715 92.2302C86.1843 87.8563 82.4138 84.4654 77.9499 84.6564C73.4859 84.8474 70.0189 88.5479 70.206 92.9218C70.3932 97.2957 74.1636 100.687 78.6276 100.496Z" fill="#F3F3FF"/>
<path d="M89.7827 424.541L93.5596 434.52L104.354 434.054C105.263 434.007 105.706 435.173 104.984 435.732L96.5206 442.33L100.298 452.285C100.624 453.148 99.668 453.917 98.8986 453.405L89.8527 447.529L81.3429 454.151C80.6202 454.71 79.6176 454.034 79.8508 453.148L82.7651 442.913L73.789 437.061C73.0197 436.572 73.3461 435.359 74.2553 435.336L85.0499 434.87L87.9642 424.611C88.2207 423.749 89.433 423.679 89.7594 424.541H89.7827Z" fill="#F3F3FF"/>
<path d="M274.68 509.921C282.424 509.589 288.439 503.157 288.113 495.555C287.788 487.952 281.246 482.057 273.502 482.388C265.758 482.72 259.743 489.152 260.069 496.754C260.394 504.357 266.936 510.252 274.68 509.921Z" fill="#F3F3FF"/>
<path d="M274.383 503.049C278.256 502.883 281.263 499.662 281.1 495.854C280.937 492.046 277.666 489.093 273.793 489.259C269.921 489.425 266.914 492.646 267.077 496.454C267.24 500.262 270.511 503.214 274.383 503.049Z" fill="#070012"/>
</svg>
